# xmcd
#
# Track frame offsets:
#  150
#  15244
#  26401
#  35935
#  46383
#  62631
#  77325
#  92539
#  104467
#  117204
#  132613
#  138292
#  152105
#  169457
#  182777
#  196151
#  205682
#  215627
#  228374
#  243678
#  257396
#  265906
#  280561
#  295277
#
# Disc length: 4115 seconds
#
# Revision: 3
# Processed by: cddbd v1.5.2PL0 Copyright (c) Steve Scherf et al.
# Submitted via: Collectorz.com Music Collector 6.9
#
DISCID=54101118
DTITLE=Various Artist - The Best of Country Gospel
DYEAR=1999
DGENRE=Country
TTITLE0=Ray Price - The Old Rugged Cross
TTITLE1=Porter Wagoner - What Would You Do (If Jesus Came To Your House)
TTITLE2=Skeeter Davis - Turn Your Radio on
TTITLE3=Don Gibson - There Is Power in the Blood
TTITLE4=Jim Ed Brown - Whispering Hope
TTITLE5=Connie Smith - Jesus Is Your Ticket To Heaven
TTITLE6=Lee Greenwood - Amen
TTITLE7=Johnny Russell - Softly And Tenderly
TTITLE8=Patsy Cline - Just a Closer Walk with Thee
TTITLE9=Margo Smith - You Light Up My Life
TTITLE10=Narvel Felts - Rock of Ages
TTITLE11=Johnny Darrell - Little Delta Church
TTITLE12=Lee Greenwood - One Day At a Time
TTITLE13=Ray Price - What a Friend We Have in Jesus
TTITLE14=Lacy J Dalton - Life's a Railway To Heaven
TTITLE15=Merl Kilgore - In the Sweet Bye And Bye
TTITLE16=David Houston - Church in the Wildwood
TTITLE17=Jeanne Pruett - Uncloudy Day
TTITLE18=Jack Green - Why Me, Lord
TTITLE19=Johnny Russell - Baptism of Jesse
TTITLE20=Carl and Pearl Butler - Leaning on the Everlasting Arms
TTITLE21=Sandy Posey - Put Your Hand in the Hand
TTITLE22=Kenny Price - Peace in the Valley
TTITLE23=Lee Greenwood - Amazing Grace
EXTD=
EXTT0=
EXTT1=
EXTT2=
EXTT3=
EXTT4=
EXTT5=
EXTT6=
EXTT7=
EXTT8=
EXTT9=
EXTT10=
EXTT11=
EXTT12=
EXTT13=
EXTT14=
EXTT15=
EXTT16=
EXTT17=
EXTT18=
EXTT19=
EXTT20=
EXTT21=
EXTT22=
EXTT23=
PLAYORDER=
